<svg xmlns="http://www.w3.org/2000/svg" xmlns:xlink="http://www.w3.org/1999/xlink" version="1.1" x="0px" y="0px" viewBox="0 0 66 82.5" style="enable-background:new 0 0 66 66;" xml:space="preserve"><path d="M58.08,10.05c1.31,0,2.37-1.06,2.37-2.37s-1.06-2.37-2.37-2.37c-1.31,0-2.37,1.06-2.37,2.37S56.78,10.05,58.08,10.05z   M58.08,7c0.38,0,0.69,0.31,0.69,0.69s-0.31,0.69-0.69,0.69c-0.39,0-0.69-0.3-0.69-0.69C57.39,7.3,57.7,7,58.08,7z"/><path d="M60.71,1.48H11.99c-1.85,0-3.36,1.51-3.36,3.36v5.13H5.29c-1.85,0-3.36,1.51-3.36,3.36v42.13c0,1.85,1.51,3.36,3.36,3.36  h22.33v4.86c0,0.46,0.38,0.84,0.84,0.84h15.78c0.46,0,0.84-0.38,0.84-0.84v-4.86h8.93c1.85,0,3.36-1.51,3.36-3.36v-5.13h3.34  c1.85,0,3.36-1.51,3.36-3.36V4.84C64.07,2.99,62.56,1.48,60.71,1.48z M10.31,4.84c0-0.93,0.76-1.68,1.68-1.68h48.72  c0.93,0,1.68,0.76,1.68,1.68v7.37H30.51l-3.75-3.89c-0.29-0.3-0.69-0.47-1.1-0.47h-8.26c-0.84,0-1.53,0.69-1.53,1.53v2.83h-5.56  V4.84z M5.29,57.15c-0.93,0-1.68-0.76-1.68-1.68V13.33c0-0.93,0.76-1.68,1.68-1.68h3.34v35.33c0,1.85,1.51,3.36,3.36,3.36h18.24  c0.33,0.64,0.48,1.36,0.42,2.1h-1.3c-0.96,0-1.73,0.78-1.73,1.73v2.98H5.29z M35.52,39.56c0.17-0.3,0.48-0.49,0.83-0.49  c0.52,0,0.94,0.42,0.94,0.94c0,0.34-0.18,0.65-0.47,0.82c-0.32,0.19-0.7,0.17-1.09-0.05c-0.05-0.03-0.1-0.07-0.12-0.12  C35.29,40.15,35.42,39.75,35.52,39.56z M35.51,37.55c-0.61,0.21-1.13,0.62-1.45,1.2c-0.48,0.86-0.42,1.91,0.14,2.81  c0.18,0.28,0.42,0.51,0.71,0.68c0.46,0.26,0.96,0.4,1.45,0.4c0.46,0,0.91-0.12,1.31-0.35c0.8-0.47,1.3-1.34,1.3-2.27  c0-1.15-0.75-2.12-1.78-2.47v-4.32l7.43,13.41c-0.01,0.01-0.02,0.03-0.05,0.04c-2.63,0.68-4.35,3.14-4.21,5.76h-8.01  c0.15-2.63-1.58-5.09-4.26-5.84l7.42-13.37V37.55z M43.4,62.84H29.3l0.05-8.73h14c0.03,0,0.05,0.02,0.05,0.05V62.84z M55.69,55.46  c0,0.93-0.76,1.68-1.68,1.68h-8.93v-2.98c0-0.96-0.78-1.73-1.73-1.73h-1.3c-0.06-0.74,0.1-1.46,0.42-2.1h13.22V55.46z M60.71,48.66  H44.1c0.27-0.15,0.56-0.28,0.88-0.36c0,0,0,0,0,0c0.53-0.14,0.96-0.51,1.18-1.01c0.21-0.49,0.18-1.04-0.08-1.51l-8.6-15.49  c-0.22-0.41-0.65-0.67-1.12-0.67c-0.48,0.01-0.91,0.25-1.14,0.66l-8.61,15.5c-0.26,0.47-0.28,1.03-0.07,1.52  c0.21,0.5,0.64,0.86,1.17,1c0.32,0.08,0.6,0.21,0.88,0.36H11.99c-0.93,0-1.68-0.76-1.68-1.68V13.89h5.7c0.84,0,1.53-0.69,1.53-1.53  V9.53h8.05l3.75,3.89c0.29,0.3,0.69,0.47,1.1,0.47h31.95v33.08C62.39,47.9,61.64,48.66,60.71,48.66z"/><path d="M52.36,10.05c1.31,0,2.37-1.06,2.37-2.37s-1.06-2.37-2.37-2.37s-2.37,1.06-2.37,2.37S51.05,10.05,52.36,10.05z M52.36,7  c0.38,0,0.69,0.31,0.69,0.69s-0.31,0.69-0.69,0.69c-0.39,0-0.69-0.3-0.69-0.69C51.67,7.3,51.98,7,52.36,7z"/><path d="M46.63,10.05c1.31,0,2.37-1.06,2.37-2.37s-1.06-2.37-2.37-2.37s-2.37,1.06-2.37,2.37S45.32,10.05,46.63,10.05z M46.63,7  c0.38,0,0.69,0.31,0.69,0.69s-0.31,0.69-0.69,0.69c-0.39,0-0.69-0.3-0.69-0.69C45.94,7.3,46.25,7,46.63,7z"/><path d="M52.54,21.21c-0.49,0.49-0.8,1.11-0.92,1.77H39.87v-1.32c0-0.9-0.73-1.63-1.63-1.63h-3.79c-0.9,0-1.63,0.73-1.63,1.63v1.32  H21.08c-0.11-0.65-0.42-1.27-0.92-1.78c-1.27-1.25-3.44-1.23-4.68,0.01c-0.63,0.63-0.97,1.46-0.97,2.34c0,0.89,0.35,1.73,0.97,2.34  c0.63,0.65,1.47,0.98,2.34,0.98c0.55,0,1.11-0.13,1.64-0.4c0.57-0.29,1.04-0.77,1.32-1.36c0.07-0.15,0.13-0.3,0.18-0.45h8.15  c-4.43,2.16-7.77,6.22-8.93,11.12h-1.3c-0.9,0-1.63,0.73-1.63,1.63v3.79c0,0.9,0.73,1.63,1.63,1.63h3.79c0.9,0,1.63-0.73,1.63-1.63  v-3.79c0-0.9-0.73-1.63-1.63-1.63h-0.76c1.4-5.28,5.63-9.42,10.94-10.7v0.36c0,0.9,0.73,1.63,1.63,1.63h3.79  c0.9,0,1.63-0.73,1.63-1.63v-0.36c5.3,1.28,9.53,5.42,10.94,10.7h-0.69c-0.9,0-1.63,0.73-1.63,1.63v3.79c0,0.9,0.73,1.63,1.63,1.63  h3.79c0.9,0,1.63-0.73,1.63-1.63v-3.79c0-0.9-0.73-1.63-1.63-1.63h-1.37c-1.17-4.9-4.51-8.97-8.93-11.12h8.17  c0.16,0.46,0.42,0.88,0.77,1.23c0.63,0.65,1.47,0.98,2.34,0.98c0.55,0,1.11-0.13,1.64-0.4c0.57-0.29,1.04-0.77,1.32-1.36  c0.65-1.37,0.42-2.86-0.61-3.91C55.96,19.96,53.79,19.97,52.54,21.21z M19.25,24.4C19.25,24.4,19.25,24.4,19.25,24.4  c-0.12,0.24-0.32,0.45-0.56,0.57c-0.87,0.44-1.62,0.16-2.03-0.27c-0.31-0.3-0.48-0.71-0.48-1.15c0-0.43,0.17-0.84,0.48-1.16  c0.31-0.31,0.72-0.48,1.16-0.48c0.43,0,0.85,0.17,1.15,0.47C19.49,22.92,19.59,23.67,19.25,24.4z M22.65,41.15l-3.74,0.05  l-0.05-3.74h3.74L22.65,41.15z M53.91,41.15l-3.74,0.05l-0.05-3.74h3.74L53.91,41.15z M34.51,25.45l-0.02-1.26  c0.02-0.09,0.02-0.18,0.01-0.28c0,0,0-0.01,0-0.01c0-0.03,0.02-0.05,0.02-0.08c0-0.05-0.02-0.09-0.03-0.13l-0.03-1.97h3.74  l0.03,1.97c-0.01,0.05-0.03,0.09-0.03,0.14c0,0.03,0.01,0.05,0.02,0.08c0,0,0,0.01,0,0.01c-0.02,0.13-0.01,0.25,0.02,0.36l0.02,1.13  L34.51,25.45z M56.32,24.4C56.32,24.4,56.32,24.4,56.32,24.4c-0.12,0.24-0.32,0.45-0.56,0.57c-0.87,0.44-1.62,0.16-2.03-0.27  c-0.31-0.3-0.48-0.71-0.48-1.15c0-0.43,0.17-0.84,0.48-1.16c0.31-0.31,0.72-0.48,1.16-0.48c0.43,0,0.85,0.17,1.15,0.47  C56.56,22.92,56.66,23.67,56.32,24.4z"/><text x="0" y="81" fill="#000000" font-size="5px" font-weight="bold" font-family="'Helvetica Neue', Helvetica, Arial-Unicode, Arial, Sans-serif">Created by Design Circle</text><text x="0" y="86" fill="#000000" font-size="5px" font-weight="bold" font-family="'Helvetica Neue', Helvetica, Arial-Unicode, Arial, Sans-serif">from the Noun Project</text></svg>